# xmcd
#
# Track frame offsets: 
#        150
#        44632
#        78825
#        94512
#        118482
#        145060
#        170480
#
# Disc length: 2544 seconds
#
# Revision: 7
# Processed by: cddbd v1.5.2PL0 Copyright (c) Steve Scherf et al.
# Submitted via: ExactAudioCopy v0.99pb4
#
DISCID=5a09ee07
DTITLE=Buddy Guy, Junior Wells and Junior Mance - Buddy And The Juniors
DYEAR=1970
DGENRE=Blues
TTITLE0=Talkin' 'Bout Women Obviously
TTITLE1=A Motif Is Just A Riff
TTITLE2=Buddy's Blues
TTITLE3=Hoochie Coochie Man
TTITLE4=Five Long Years
TTITLE5=Rock Me Mama
TTITLE6=Ain't No Need
EXTD=YEAR: 1970
EXTT0=
EXTT1=
EXTT2=
EXTT3=
EXTT4=
EXTT5=
EXTT6=
PLAYORDER=
